<svg width="49" height="50" viewBox="0 0 49 50" fill="none" xmlns="http://www.w3.org/2000/svg">
<path d="M20.3879 37.4185C19.1065 36.3433 18.9394 34.4329 20.0145 33.1516L41.8187 7.1662C42.8939 5.88484 44.8042 5.7177 46.0856 6.7929C47.3669 7.86809 47.5341 9.77846 46.4589 11.0598L24.6548 37.0452C23.5796 38.3266 21.6692 38.4937 20.3879 37.4185Z" fill="#1D1D1D"/>
<mask id="path-2-inside-1_49_3" fill="white">
<path d="M17.9649 34.9952C16.6836 33.92 16.5164 32.0096 17.5916 30.7282L39.3958 4.74286C40.4709 3.4615 42.3813 3.29436 43.6627 4.36956C44.944 5.44475 45.1111 7.35512 44.036 8.63649L22.2318 34.6218C21.1566 35.9032 19.2463 36.0703 17.9649 34.9952Z"/>
</mask>
<path d="M17.9649 34.9952C16.6836 33.92 16.5164 32.0096 17.5916 30.7282L39.3958 4.74286C40.4709 3.4615 42.3813 3.29436 43.6627 4.36956C44.944 5.44475 45.1111 7.35512 44.036 8.63649L22.2318 34.6218C21.1566 35.9032 19.2463 36.0703 17.9649 34.9952Z" fill="#004B71"/>
<path d="M15.6448 33.0483L41.3425 2.42274L15.6448 33.0483ZM43.6627 4.36956C45.3671 5.79976 45.5894 8.34088 44.1592 10.0453L23.6406 34.4986C22.2105 36.203 19.6694 36.4254 17.9649 34.9952C18.8232 35.7153 20.3906 35.2604 21.4658 33.9791L43.2699 7.9937C44.3451 6.71233 44.5209 5.08975 43.6627 4.36956ZM20.285 36.942L15.6448 33.0483L20.285 36.942ZM41.3425 2.42274L45.9828 6.31637L41.3425 2.42274Z" fill="white" fill-opacity="0.6" mask="url(#path-2-inside-1_49_3)"/>
<mask id="path-4-inside-2_49_3" fill="white">
<path d="M15.5418 32.5723C14.2605 31.4971 14.0933 29.5867 15.1685 28.3054L36.9727 2.32001C38.0478 1.03865 39.9582 0.871511 41.2396 1.94671C42.5209 3.0219 42.688 4.93227 41.6129 6.21363L19.8087 32.199C18.7335 33.4804 16.8232 33.6475 15.5418 32.5723Z"/>
</mask>
<path d="M15.5418 32.5723C14.2605 31.4971 14.0933 29.5867 15.1685 28.3054L36.9727 2.32001C38.0478 1.03865 39.9582 0.871511 41.2396 1.94671C42.5209 3.0219 42.688 4.93227 41.6129 6.21363L19.8087 32.199C18.7335 33.4804 16.8232 33.6475 15.5418 32.5723Z" fill="#016790"/>
<path d="M13.2217 30.6255L38.9195 -0.000107204L13.2217 30.6255ZM41.2396 1.94671C42.944 3.3769 43.1663 5.91803 41.7361 7.62247L21.2176 32.0757C19.7874 33.7802 17.2463 34.0025 15.5418 32.5723C16.4001 33.2925 17.9675 32.8376 19.0427 31.5562L40.8468 5.57085C41.922 4.28948 42.0978 2.6669 41.2396 1.94671ZM17.8619 34.5191L13.2217 30.6255L17.8619 34.5191ZM38.9195 -0.000107204L43.5597 3.89352L38.9195 -0.000107204Z" fill="white" mask="url(#path-4-inside-2_49_3)"/>
<path d="M19.3836 18.591C19.3836 19.8861 18.5924 21.0258 17.515 21.7445C14.2597 23.916 12.115 27.6207 12.115 31.8276C12.115 38.5184 17.5386 43.9428 24.2293 43.9429C28.436 43.9429 32.1405 41.7978 34.312 38.5426C35.031 37.4648 36.1711 36.6733 37.4667 36.6733C39.6201 36.6733 41.1764 38.7443 40.132 40.6275C37.0328 46.2165 31.0729 49.9995 24.2293 49.9995C14.1933 49.9994 6.05744 41.8638 6.05742 31.8276C6.05742 24.9838 9.8411 19.025 15.4304 15.9263C17.3133 14.8825 19.3836 16.4382 19.3836 18.591Z" fill="#1D1D1D"/>
<path d="M16.9605 17.414C16.9605 18.7093 16.1693 19.8492 15.0918 20.568C11.8367 22.7394 9.69204 26.4434 9.69196 30.6499C9.69196 37.3406 15.1156 42.7649 21.8062 42.7651C26.0128 42.7651 29.7175 40.6204 31.8891 37.3653C32.6079 36.2878 33.7478 35.4966 35.0431 35.4966C37.1962 35.4966 38.7522 37.5673 37.7081 39.4503C34.6089 45.0393 28.6496 48.8228 21.8062 48.8228C11.7702 48.8225 3.63434 40.686 3.63434 30.6499C3.6344 23.8064 7.4178 17.8478 13.0067 14.7489C14.8898 13.7048 16.9605 15.2608 16.9605 17.414Z" fill="white" fill-opacity="0.6"/>
<path d="M16.3549 16.7738C16.3549 18.0691 15.5636 19.209 14.486 19.9278C11.231 22.0992 9.08647 25.8032 9.08633 30.0098C9.08633 36.7006 14.5099 42.125 21.2006 42.125C25.407 42.125 29.1109 39.9804 31.2823 36.7255C32.0013 35.6478 33.1413 34.8564 34.4368 34.8564C36.5903 34.8564 38.1465 36.9275 37.1022 38.8108C34.003 44.3995 28.0439 48.1826 21.2006 48.1826C11.1645 48.1826 3.02872 40.046 3.02872 30.0098C3.02884 23.1662 6.81216 17.2075 12.4012 14.1087C14.2842 13.0646 16.3549 14.6207 16.3549 16.7738Z" fill="#004B71"/>
<path d="M13.9319 15.5961C13.9319 16.8914 13.1407 18.0313 12.0631 18.7501C8.80803 20.9217 6.66339 24.6263 6.66339 28.833C6.66347 35.5236 12.0871 40.947 18.7776 40.9473C22.9842 40.9473 26.6888 38.8029 28.8603 35.5479C29.5793 34.4701 30.7194 33.6787 32.015 33.6787C34.1684 33.6787 35.7247 35.7497 34.6803 37.6329C31.5811 43.2219 25.6212 47.0049 18.7776 47.0049C8.74165 47.0047 0.605837 38.8691 0.605774 28.833C0.605774 21.9893 4.38913 16.0301 9.97822 12.931C11.8613 11.8869 13.9319 13.4429 13.9319 15.5961Z" fill="white"/>
<path d="M13.3262 14.9569C13.3262 16.2522 12.5349 17.3921 11.4574 18.111C8.20226 20.2825 6.05762 23.9872 6.05762 28.1938C6.05785 34.8844 11.4814 40.3079 18.1719 40.3081C22.3783 40.3081 26.0822 38.1635 28.2536 34.9086C28.9726 33.8309 30.1126 33.0396 31.4081 33.0396C33.5616 33.0396 35.1178 35.1106 34.0734 36.9939C30.9741 42.5822 25.015 46.3647 18.1719 46.3647C8.13581 46.3646 0 38.229 0 28.1929C3.33434e-05 21.3493 3.78341 15.3907 9.37242 12.2918C11.2555 11.2478 13.3262 12.8038 13.3262 14.9569Z" fill="#016790"/>
</svg>
